<svg xmlns="http://www.w3.org/2000/svg" width="140" height="150" viewBox="0 0 140 150">
  <defs>
    <clipPath id="clip-body-jump">
      <path d="M 38,74 C 36,60 50,55 66,57 C 77,58 81,50 88,45 C 95,40 106,41 112,47 C 116,51 120,57 125,63 C 128,66 128,70 124,72 C 119,74 113,75 107,75 C 101,75 99,79 95,82 C 91,86 89,91 86,95 C 84,101 83,107 80,112 C 66,116 49,115 39,110 C 31,105 29,99 29,91 C 29,83 32,77 38,74 Z"/>
    </clipPath>
  </defs>

  <!-- tail (behind, raised) -->
  <g fill="none" stroke-linecap="round">
    <path d="M 37,73 C 27,62 20,48 19,33" stroke="#2E2A28" stroke-width="12"/>
    <path d="M 37,73 C 27,62 20,48 19,33" stroke="#F4B860" stroke-width="8"/>
  </g>

  <!-- far legs (behind body): front pulled up, back extended-down -->
  <g fill="none" stroke-linecap="round">
    <path d="M 80,100 C 84,96 89,92 92,88" stroke="#2E2A28" stroke-width="12"/>
    <path d="M 80,100 C 84,96 89,92 92,88" stroke="#E09B3C" stroke-width="8"/>
    <path d="M 46,102 C 52,110 58,116 62,120" stroke="#2E2A28" stroke-width="12"/>
    <path d="M 46,102 C 52,110 58,116 62,120" stroke="#E09B3C" stroke-width="8"/>
  </g>
  <g>
    <ellipse cx="92" cy="86" rx="6" ry="4" fill="#E09B3C" stroke="#2E2A28" stroke-width="2.5"/>
    <ellipse cx="62" cy="121" rx="6" ry="4" fill="#E09B3C" stroke="#2E2A28" stroke-width="2.5"/>
  </g>

  <!-- body fill -->
  <path d="M 38,74 C 36,60 50,55 66,57 C 77,58 81,50 88,45 C 95,40 106,41 112,47 C 116,51 120,57 125,63 C 128,66 128,70 124,72 C 119,74 113,75 107,75 C 101,75 99,79 95,82 C 91,86 89,91 86,95 C 84,101 83,107 80,112 C 66,116 49,115 39,110 C 31,105 29,99 29,91 C 29,83 32,77 38,74 Z" fill="#F4B860"/>

  <!-- cream belly -->
  <path d="M 44,98 C 58,104 74,105 84,104 C 82,112 78,116 70,117 C 56,118 42,114 38,108 C 38,104 40,100 44,98 Z" fill="#FBE8C6"/>

  <!-- shadow (cel, clipped to body) -->
  <g clip-path="url(#clip-body-jump)">
    <path d="M 26,96 C 28,86 34,82 42,84 C 58,88 76,90 88,104 C 92,110 88,118 80,116 C 64,120 44,118 34,112 C 28,108 25,102 26,96 Z" fill="#E09B3C"/>
  </g>

  <!-- body outline -->
  <path d="M 38,74 C 36,60 50,55 66,57 C 77,58 81,50 88,45 C 95,40 106,41 112,47 C 116,51 120,57 125,63 C 128,66 128,70 124,72 C 119,74 113,75 107,75 C 101,75 99,79 95,82 C 91,86 89,91 86,95 C 84,101 83,107 80,112 C 66,116 49,115 39,110 C 31,105 29,99 29,91 C 29,83 32,77 38,74 Z" fill="none" stroke="#2E2A28" stroke-width="3.5" stroke-linejoin="round"/>

  <!-- near legs (front of body): front pulled up-forward, back extended down-back (lowest contact) -->
  <g fill="none" stroke-linecap="round">
    <path d="M 40,100 C 34,116 28,130 24,140" stroke="#2E2A28" stroke-width="12"/>
    <path d="M 40,100 C 34,116 28,130 24,140" stroke="#F4B860" stroke-width="8"/>
    <path d="M 86,96 C 95,92 102,88 106,84" stroke="#2E2A28" stroke-width="12"/>
    <path d="M 86,96 C 95,92 102,88 106,84" stroke="#F4B860" stroke-width="8"/>
  </g>
  <g>
    <ellipse cx="24" cy="143" rx="6" ry="4" fill="#F4B860" stroke="#2E2A28" stroke-width="2.5"/>
    <ellipse cx="106" cy="82" rx="6" ry="4" fill="#F4B860" stroke="#2E2A28" stroke-width="2.5"/>
  </g>

  <!-- ears swept back (pointing left) -->
  <path d="M 112,49 C 104,45 100,43 101,40 C 106,41 113,44 118,48 C 116,49 114,49 112,49 Z" fill="#CC7E32" stroke="#2E2A28" stroke-width="3"/>
  <path d="M 96,52 C 86,51 78,50 77,46 C 82,44 92,46 100,49 C 99,51 98,52 96,52 Z" fill="#E08A3A" stroke="#2E2A28" stroke-width="3"/>

  <!-- collar + tag -->
  <path d="M 78,83 C 86,80 94,80 100,83" fill="none" stroke="#2FB4A0" stroke-width="7" stroke-linecap="round"/>
  <circle cx="100" cy="88" r="4.5" fill="#FFD24A" stroke="#2E2A28" stroke-width="2"/>

  <!-- face: joyful open mouth + tongue -->
  <path d="M 119,68 C 116,72 110,73 107,71 C 110,78 117,79 121,75 C 122,72 121,69 119,68 Z" fill="#2E2A28"/>
  <ellipse cx="114" cy="74" rx="4" ry="3" fill="#F27C7C" stroke="#2E2A28" stroke-width="1.3"/>
  <path d="M 119,63 C 122,60 128,61 129,65 C 129,68 125,69 122,68 C 120,67 118,65 119,63 Z" fill="#2E2A28"/>
  <path d="M 101,57 C 103,54 107,54 109,57 C 107,59 103,59 101,57 Z" fill="#2E2A28"/>
  <circle cx="107" cy="56" r="1.1" fill="#FBE8C6"/>
  <circle cx="127" cy="64" r="0.9" fill="#FBE8C6"/>
</svg>
